<?xml version="1.0" encoding="UTF-8" standalone="no"?>
<svg
   xmlns:dc="http://purl.org/dc/elements/1.1/"
   xmlns:cc="http://creativecommons.org/ns#"
   xmlns:rdf="http://www.w3.org/1999/02/22-rdf-syntax-ns#"
   xmlns:svg="http://www.w3.org/2000/svg"
   xmlns="http://www.w3.org/2000/svg"
   xmlns:sodipodi="http://sodipodi.sourceforge.net/DTD/sodipodi-0.dtd"
   xmlns:inkscape="http://www.inkscape.org/namespaces/inkscape"
   version="1.1"
   id="Capa_1"
   x="0px"
   y="0px"
   width="371.14069"
   height="56.520077"
   viewBox="0 0 371.1407 56.520079"
   enable-background="new 0 0 2834.65 2834.65"
   xml:space="preserve"
   sodipodi:docname="logoSICUT_web2.svg"
   inkscape:version="1.0.1 (3bc2e813f5, 2020-09-07)"><metadata
   id="metadata57"><rdf:RDF><cc:Work
       rdf:about=""><dc:format>image/svg+xml</dc:format><dc:type
         rdf:resource="http://purl.org/dc/dcmitype/StillImage" /><dc:title></dc:title></cc:Work></rdf:RDF></metadata><defs
   id="defs55" /><sodipodi:namedview
   pagecolor="#ffffff"
   bordercolor="#666666"
   borderopacity="1"
   objecttolerance="10"
   gridtolerance="10"
   guidetolerance="10"
   inkscape:pageopacity="0"
   inkscape:pageshadow="2"
   inkscape:window-width="1050"
   inkscape:window-height="764"
   id="namedview53"
   showgrid="false"
   fit-margin-top="0"
   fit-margin-left="0"
   fit-margin-right="0"
   fit-margin-bottom="0"
   inkscape:zoom="0.29986066"
   inkscape:cx="765.62352"
   inkscape:cy="75.721356"
   inkscape:window-x="232"
   inkscape:window-y="1178"
   inkscape:window-maximized="0"
   inkscape:current-layer="Capa_1" />
<g
   id="g50"
   transform="translate(-773.06732,-1274.906)">
	<g
   id="g22">
		<path
   fill-rule="evenodd"
   clip-rule="evenodd"
   fill="#ffffff"
   d="m 865.122,1298.356 c -2.579,-1.467 -5.665,-3.136 -5.665,-5.868 0,-2.933 2.327,-4.551 5.767,-4.551 3.541,0 7.537,1.518 8.194,1.719 v -4.753 c -1.162,-0.304 -4.602,-1.012 -7.941,-1.012 -6.525,0 -11.584,2.782 -11.584,9.002 0,5.362 4.351,7.333 7.588,9.206 l 3.187,1.873 c 2.732,1.618 5.667,3.085 5.667,6.726 0,3.793 -3.339,5.16 -6.627,5.16 -3.896,0 -7.233,-1.416 -9.257,-2.579 v 5.259 c 1.063,0.354 4.705,1.367 8.852,1.367 7.185,0 12.597,-3.188 12.597,-9.914 0,-5.515 -3.946,-7.689 -7.336,-9.611 z"
   id="path2" />
		<rect
   x="885.66901"
   y="1284.448"
   fill-rule="evenodd"
   clip-rule="evenodd"
   fill="#ffffff"
   width="5.059"
   height="34.898998"
   id="rect4" />
		<path
   fill-rule="evenodd"
   clip-rule="evenodd"
   fill="#ffffff"
   d="m 924.565,1313.126 c -0.911,0.557 -3.844,2.731 -8.144,2.731 -7.234,0 -9.358,-6.424 -9.358,-15.174 0,-4.754 0.91,-12.745 7.487,-12.745 4.907,0 5.514,3.945 5.514,6.067 h 5.867 c 0,-5.968 -4.097,-10.114 -11.229,-10.114 -10.167,0 -13.202,8.346 -13.202,17.602 0,13.657 6.221,18.412 13.91,18.412 4.098,0 7.69,-1.416 9.156,-2.075 v -4.704 z"
   id="path6" />
		<path
   fill-rule="evenodd"
   clip-rule="evenodd"
   fill="#ffffff"
   d="m 958.1,1284.448 h -5.058 v 23.621 c 0,2.579 0,7.789 -6.879,7.789 -6.677,0 -6.677,-5.21 -6.677,-7.789 v -23.621 h -5.058 v 24.581 c 0,7.486 5.008,10.876 11.786,10.876 6.829,0 11.887,-3.39 11.887,-10.876 v -24.581 z"
   id="path8" />
		<polygon
   fill-rule="evenodd"
   clip-rule="evenodd"
   fill="#ffffff"
   points="988.604,1288.494 988.604,1284.448 966.145,1284.448 966.145,1288.494 974.845,1288.494 974.845,1319.347 979.904,1319.347 979.904,1288.494 "
   id="polygon10" />
		<rect
   x="1016.53"
   y="1284.448"
   fill-rule="evenodd"
   clip-rule="evenodd"
   fill="#ffffff"
   width="5.0580001"
   height="34.898998"
   id="rect12" />
		<path
   fill-rule="evenodd"
   clip-rule="evenodd"
   fill="#ffffff"
   d="m 1057.904,1299.216 h -12.494 v 4.047 h 7.437 v 11.229 c -0.354,0.507 -2.833,1.366 -5.918,1.366 -8.043,0 -9.005,-8.396 -9.005,-15.022 0,-6.323 1.519,-12.897 8.093,-12.897 4.402,0 6.071,2.883 6.071,5.867 h 5.614 c 0,-6.728 -5.311,-9.914 -11.634,-9.914 -9.915,0 -13.708,7.334 -13.708,16.944 0,13.503 5.716,19.069 14.721,19.069 5.766,0 9.762,-2.478 10.824,-3.289 v -17.4 z"
   id="path14" />
		<polygon
   fill-rule="evenodd"
   clip-rule="evenodd"
   fill="#ffffff"
   points="1074.092,1291.377 1088.206,1319.347 1094.174,1319.347 1094.174,1284.448 1089.622,1284.448 1089.622,1311.761 1089.521,1311.761 1075.762,1284.448 1069.438,1284.448 1069.438,1319.347 1073.991,1319.347 1073.991,1291.377 "
   id="polygon16" />
		<rect
   x="1106.676"
   y="1284.448"
   fill-rule="evenodd"
   clip-rule="evenodd"
   fill="#ffffff"
   width="5.0580001"
   height="34.898998"
   id="rect18" />
		<path
   fill-rule="evenodd"
   clip-rule="evenodd"
   fill="#ffffff"
   d="m 1133.431,1298.356 c -2.58,-1.467 -5.664,-3.136 -5.664,-5.868 0,-2.933 2.326,-4.551 5.767,-4.551 3.541,0 7.537,1.518 8.194,1.719 v -4.753 c -1.164,-0.304 -4.603,-1.012 -7.942,-1.012 -6.525,0 -11.584,2.782 -11.584,9.002 0,5.362 4.352,7.333 7.588,9.206 l 3.187,1.873 c 2.732,1.618 5.666,3.085 5.666,6.726 0,3.793 -3.338,5.16 -6.626,5.16 -3.895,0 -7.233,-1.416 -9.257,-2.579 v 5.259 c 1.063,0.354 4.704,1.367 8.851,1.367 7.184,0 12.597,-3.188 12.597,-9.914 0,-5.515 -3.946,-7.689 -7.336,-9.611 z"
   id="path20" />
	</g>
	<g
   id="g48">
		<path
   fill-rule="evenodd"
   clip-rule="evenodd"
   fill="#ffe616"
   d="m 778.642,1328.845 c 14.635,-0.408 24.424,-5.217 33.693,-16.548 9.506,-11.622 12.198,-22.55 9.345,-37.346 -0.889,2.219 -1.468,3.446 -2.615,5.542 -6.46,11.8 -13.474,12.295 -25.797,22.899 -9.779,8.412 -10.455,14.791 -14.626,25.453 z"
   id="path24" />
		<linearGradient
   id="SVGID_1_"
   gradientUnits="userSpaceOnUse"
   x1="783.81641"
   y1="1332.1299"
   x2="821.27551"
   y2="1294.6708">
			<stop
   offset="0"
   style="stop-color:#004289"
   id="stop26" />
			<stop
   offset="1"
   style="stop-color:#57BEC4"
   id="stop28" />
		</linearGradient>
		<path
   fill-rule="evenodd"
   clip-rule="evenodd"
   fill="url(#SVGID_1_)"
   d="m 782.141,1324.623 c -0.589,1.445 -1.254,3.252 -1.617,4.214 13.578,-0.971 22.928,-5.62 31.789,-16.455 4.718,-5.766 7.773,-11.384 9.3,-17.374 -1.073,0.069 -4.25,0.751 -5.829,1.128 -2.813,5.801 -4.59,9.712 -11.19,16.914 -8.684,8.74 -17.356,10.639 -22.453,11.573 z"
   id="path31"
   style="fill:url(#SVGID_1_)" />
		<path
   fill-rule="evenodd"
   clip-rule="evenodd"
   fill="#afcb26"
   d="m 815.747,1296.136 c 2.225,-0.551 3.691,-0.921 5.869,-1.124 1.543,-6.098 1.545,-12.675 0.062,-20.106 -0.877,2.262 -2.222,4.934 -2.222,4.934 -0.134,4.069 -0.685,9.641 -3.709,16.296 z"
   id="path33" />
		<linearGradient
   id="SVGID_2_"
   gradientUnits="userSpaceOnUse"
   x1="798.94379"
   y1="1324.6055"
   x2="798.94379"
   y2="1296.1743">
			<stop
   offset="0"
   style="stop-color:#DD052B"
   id="stop35" />
			<stop
   offset="0.9946"
   style="stop-color:#F28C00"
   id="stop37" />
		</linearGradient>
		<path
   fill-rule="evenodd"
   clip-rule="evenodd"
   fill="url(#SVGID_2_)"
   d="m 815.747,1296.174 c -0.776,1.809 -1.467,3.322 -2.592,5.329 -7.324,13.064 -16.939,20.571 -31.014,23.103 4.287,-10.107 10.726,-16.953 21.241,-22.994 4.494,-2.583 8.341,-4.336 12.365,-5.438 z"
   id="path40"
   style="fill:url(#SVGID_2_)" />
		<path
   fill-rule="evenodd"
   clip-rule="evenodd"
   fill="#afcb26"
   d="m 778.624,1328.86 c 0.896,-0.03 1.199,0 1.839,-0.048 0.175,-0.56 1.678,-4.151 1.678,-4.151 l -2.053,0.246 c 0,0 -0.393,1.284 -1.464,3.953 z"
   id="path42" />
		
			<path
   fill-rule="evenodd"
   clip-rule="evenodd"
   fill="none"
   stroke="#00928c"
   stroke-width="0.3338"
   stroke-miterlimit="3.8637"
   d="m 834.722,1294.744 -5.659,-0.252 c -12.171,0.143 -18.706,3.066 -25.584,7.018 -12.02,6.905 -19.542,15.567 -23.747,29.869"
   id="path44" />
		
			<path
   fill-rule="evenodd"
   clip-rule="evenodd"
   fill="none"
   stroke="#00928c"
   stroke-width="0.3338"
   stroke-miterlimit="3.8637"
   d="m 819.373,1276.797 c 0.597,8.153 -1.49,16.019 -6.149,24.488 -8.778,15.963 -22.377,24.29 -40.154,24.004"
   id="path46" />
	</g>
</g>
</svg>
