<?xml version="1.0" encoding="UTF-8" standalone="no"?>
<svg
   xmlns:dc="http://purl.org/dc/elements/1.1/"
   xmlns:cc="http://creativecommons.org/ns#"
   xmlns:rdf="http://www.w3.org/1999/02/22-rdf-syntax-ns#"
   xmlns:svg="http://www.w3.org/2000/svg"
   xmlns="http://www.w3.org/2000/svg"
   xmlns:sodipodi="http://sodipodi.sourceforge.net/DTD/sodipodi-0.dtd"
   xmlns:inkscape="http://www.inkscape.org/namespaces/inkscape"
   version="1.1"
   id="Capa_1"
   x="0px"
   y="0px"
   width="451.58469"
   height="99.324074"
   viewBox="0 0 451.5847 99.324077"
   enable-background="new 0 0 2834.65 2834.65"
   xml:space="preserve"
   sodipodi:docname="logoSICUT_web1.svg"
   inkscape:version="1.0.1 (3bc2e813f5, 2020-09-07)"><metadata
   id="metadata115"><rdf:RDF><cc:Work
       rdf:about=""><dc:format>image/svg+xml</dc:format><dc:type
         rdf:resource="http://purl.org/dc/dcmitype/StillImage" /><dc:title></dc:title></cc:Work></rdf:RDF></metadata><defs
   id="defs113" /><sodipodi:namedview
   pagecolor="#ffffff"
   bordercolor="#666666"
   borderopacity="1"
   objecttolerance="10"
   gridtolerance="10"
   guidetolerance="10"
   inkscape:pageopacity="0"
   inkscape:pageshadow="2"
   inkscape:window-width="1214"
   inkscape:window-height="885"
   id="namedview111"
   showgrid="false"
   inkscape:lockguides="false"
   fit-margin-top="0"
   fit-margin-left="0"
   fit-margin-right="0"
   fit-margin-bottom="0"
   inkscape:zoom="0.29986066"
   inkscape:cx="1411.7827"
   inkscape:cy="209.25349"
   inkscape:window-x="118"
   inkscape:window-y="1159"
   inkscape:window-maximized="0"
   inkscape:current-layer="Capa_1" />
<g
   id="g108"
   transform="translate(-682.52331,-992.639)">
	<g
   id="g80">
		<g
   id="g56">
			<path
   fill-rule="evenodd"
   clip-rule="evenodd"
   fill="#324f97"
   d="m 829.454,1079.7 c -0.419,0.256 -1.768,1.256 -3.746,1.256 -3.328,0 -4.305,-2.954 -4.305,-6.978 0,-2.187 0.418,-5.862 3.443,-5.862 2.257,0 2.536,1.814 2.536,2.791 h 2.7 c 0,-2.745 -1.885,-4.652 -5.166,-4.652 -4.677,0 -6.073,3.838 -6.073,8.096 0,6.281 2.862,8.467 6.399,8.467 1.885,0 3.537,-0.651 4.211,-0.954 v -2.164 z"
   id="path2" />
			<path
   fill-rule="evenodd"
   clip-rule="evenodd"
   fill="#324f97"
   d="m 841.047,1071.233 c -3.351,0 -4.91,2.256 -4.91,5.792 0,3.49 1.559,5.792 4.91,5.792 3.327,0 4.886,-2.303 4.886,-5.792 0,-3.536 -1.559,-5.792 -4.886,-5.792 z m 0,9.956 c -2.304,0 -2.583,-2.396 -2.583,-4.165 0,-1.792 0.279,-4.165 2.583,-4.165 2.257,0 2.56,2.373 2.56,4.165 -10e-4,1.769 -0.303,4.165 -2.56,4.165 z"
   id="path4" />
			<path
   fill-rule="evenodd"
   clip-rule="evenodd"
   fill="#324f97"
   d="m 853.506,1082.562 h 2.094 v -4.7 c 0,-2.209 1.21,-4.536 2.932,-4.536 1.513,0 1.513,1.14 1.513,3.188 v 6.048 h 2.094 v -7.677 c 0,-1.373 -0.419,-3.652 -2.979,-3.652 -2.257,0 -3.141,1.698 -3.514,2.629 H 855.6 v -2.374 h -2.094 z"
   id="path6" />
			<path
   fill-rule="evenodd"
   clip-rule="evenodd"
   fill="#324f97"
   d="m 873.356,1075.676 c -0.722,-0.442 -1.605,-0.86 -1.605,-1.629 0,-0.697 0.907,-1.187 1.815,-1.187 1.21,0 2.234,0.513 2.536,0.651 v -1.883 c -0.535,-0.093 -1.396,-0.396 -2.513,-0.396 -2.303,0 -3.932,1.093 -3.932,3.093 0,1.629 1.21,2.374 2.21,3.001 l 1.07,0.652 c 0.745,0.489 1.769,0.954 1.769,1.792 0,1.139 -1.256,1.418 -2.257,1.418 -1.164,0 -2.583,-0.559 -2.792,-0.651 v 1.838 c 0.489,0.14 1.466,0.441 2.978,0.441 2.49,0 4.165,-1.023 4.165,-3.35 0,-1.838 -1.396,-2.559 -2.559,-3.28 z"
   id="path8" />
			<path
   fill-rule="evenodd"
   clip-rule="evenodd"
   fill="#324f97"
   d="m 890.487,1082.562 h 2.094 v -11.074 h -2.094 v 4.699 c 0,2.21 -1.21,4.537 -2.932,4.537 -1.513,0 -1.513,-1.116 -1.513,-3.187 v -6.049 h -2.094 v 7.677 c 0,1.373 0.419,3.652 2.979,3.652 2.257,0 3.164,-1.698 3.514,-2.629 h 0.046 z"
   id="path10" />
			<rect
   x="901.31"
   y="1066.51"
   fill-rule="evenodd"
   clip-rule="evenodd"
   fill="#324f97"
   width="2.0940001"
   height="16.052"
   id="rect12" />
			<path
   fill-rule="evenodd"
   clip-rule="evenodd"
   fill="#324f97"
   d="m 917.928,1081.026 c -0.303,0.093 -0.745,0.163 -1.117,0.163 -1.629,0 -1.769,-1.163 -1.769,-2.164 v -5.909 h 3.072 v -1.628 h -3.072 v -3.908 l -2.094,1.303 v 2.605 h -1.978 v 1.628 h 1.978 v 7.003 c 0,1.512 0.652,2.698 3.327,2.698 0.559,0 1.117,-0.046 1.652,-0.163 v -1.628 z"
   id="path14" />
			<path
   fill-rule="evenodd"
   clip-rule="evenodd"
   fill="#324f97"
   d="m 929.285,1071.233 c -3.351,0 -4.91,2.256 -4.91,5.792 0,3.49 1.559,5.792 4.91,5.792 3.327,0 4.887,-2.303 4.887,-5.792 0,-3.536 -1.56,-5.792 -4.887,-5.792 z m 0,9.956 c -2.303,0 -2.582,-2.396 -2.582,-4.165 0,-1.792 0.279,-4.165 2.582,-4.165 2.257,0 2.56,2.373 2.56,4.165 0,1.769 -0.303,4.165 -2.56,4.165 z"
   id="path16" />
			<path
   fill-rule="evenodd"
   clip-rule="evenodd"
   fill="#324f97"
   d="m 941.745,1082.562 h 2.093 v -4.7 c 0,-3.396 1.583,-4.351 3.467,-4.351 v -2.279 c -2.188,0 -3.118,1.605 -3.42,2.489 h -0.047 v -2.233 h -2.093 z"
   id="path18" />
			<g
   id="g24">
				<polygon
   fill-rule="evenodd"
   clip-rule="evenodd"
   fill="#324f97"
   points="954.753,1069.558 956.685,1069.558 958.639,1065.673 955.824,1065.673 "
   id="polygon20" />
				<rect
   x="954.65997"
   y="1071.488"
   fill-rule="evenodd"
   clip-rule="evenodd"
   fill="#324f97"
   width="2.0940001"
   height="11.074"
   id="rect22" />
			</g>
			<path
   fill-rule="evenodd"
   clip-rule="evenodd"
   fill="#324f97"
   d="m 969.184,1071.233 c -3.095,0 -4.142,1.559 -4.142,3.327 h 2.211 c 0,-0.885 0.512,-1.699 1.768,-1.699 0.792,0 1.512,0.35 1.699,1.42 v 1.931 c -2.815,0 -6.049,0.698 -6.049,3.629 0,1.722 1.07,2.977 3.141,2.977 1.699,0 2.583,-1.023 2.862,-1.628 h 0.046 v 1.373 h 2.094 v -7.607 c -10e-4,-1.002 -10e-4,-3.723 -3.63,-3.723 z m 1.536,7.001 c 0,1.303 -1.07,2.955 -2.512,2.955 -0.629,0 -1.211,-0.559 -1.211,-1.418 0,-1.42 1.652,-2.165 3.304,-2.165 h 0.419 z"
   id="path26" />
			<polygon
   fill-rule="evenodd"
   clip-rule="evenodd"
   fill="#324f97"
   points="994.062,1075.141 1000.275,1075.141 1000.275,1073.279 994.062,1073.279 994.062,1068.371 1000.6,1068.371 1000.6,1066.51 991.735,1066.51 991.735,1082.562 1000.81,1082.562 1000.81,1080.7 994.062,1080.7 "
   id="polygon28" />
			<path
   fill-rule="evenodd"
   clip-rule="evenodd"
   fill="#324f97"
   d="m 1008.173,1082.562 h 2.093 v -4.7 c 0,-2.209 1.21,-4.536 2.932,-4.536 1.513,0 1.513,1.14 1.513,3.188 v 6.048 h 2.094 v -7.677 c 0,-1.373 -0.418,-3.652 -2.978,-3.652 -2.257,0 -3.141,1.698 -3.514,2.629 h -0.046 v -2.374 h -2.093 v 11.074 z"
   id="path30" />
			<path
   fill-rule="evenodd"
   clip-rule="evenodd"
   fill="#324f97"
   d="m 1032.91,1075.676 c 0,-2.605 -1.303,-4.443 -4.002,-4.443 -1.42,0 -4.515,0.512 -4.515,5.258 0,4.35 2.141,6.327 5.491,6.327 1.211,0 1.862,-0.163 2.77,-0.372 v -1.652 c -0.489,0.162 -1.141,0.396 -2.095,0.396 -3.024,0 -4.072,-2.908 -4.072,-4.978 h 6.422 v -0.536 z m -6.329,-0.86 c 0,-0.49 0.489,-1.956 2.21,-1.956 1.605,0 2.024,1.257 2.024,1.956 z"
   id="path32" />
			<path
   fill-rule="evenodd"
   clip-rule="evenodd"
   fill="#324f97"
   d="m 1040.455,1082.562 h 2.095 v -4.7 c 0,-3.396 1.581,-4.351 3.467,-4.351 v -2.279 c -2.188,0 -3.118,1.605 -3.421,2.489 h -0.046 v -2.233 h -2.095 z"
   id="path34" />
			<path
   fill-rule="evenodd"
   clip-rule="evenodd"
   fill="#324f97"
   d="m 1059.258,1071.488 v 1.536 h -0.046 c -0.233,-0.582 -1.141,-1.791 -2.909,-1.791 -2.816,0 -3.957,2.652 -3.957,5.792 0,2.838 0.908,5.537 3.816,5.537 1.908,0 2.839,-1.279 3.049,-1.884 h 0.046 v 1.721 c 0,1.256 0,3.513 -3.234,3.513 -1.35,0 -2.513,-0.558 -3.188,-0.884 v 2.117 c 0.488,0.116 1.675,0.396 3.397,0.396 3.304,0 5.119,-1.327 5.119,-4.536 v -11.516 h -2.093 z m -2.443,9.445 c -1.861,0 -2.141,-2.488 -2.141,-3.954 0,-1.675 0.326,-4.119 2.164,-4.119 1.838,0 2.42,2.233 2.42,3.91 0,1.768 -0.651,4.163 -2.443,4.163 z"
   id="path36" />
			<g
   id="g42">
				<polygon
   fill-rule="evenodd"
   clip-rule="evenodd"
   fill="#324f97"
   points="1072.415,1069.558 1074.346,1069.558 1076.3,1065.673 1073.485,1065.673 "
   id="polygon38" />
				<path
   fill-rule="evenodd"
   clip-rule="evenodd"
   fill="#324f97"
   d="m 1077.441,1075.676 c 0,-2.605 -1.303,-4.443 -4.003,-4.443 -1.418,0 -4.514,0.512 -4.514,5.258 0,4.35 2.141,6.327 5.492,6.327 1.209,0 1.862,-0.163 2.769,-0.372 v -1.652 c -0.489,0.162 -1.14,0.396 -2.094,0.396 -3.025,0 -4.072,-2.908 -4.072,-4.978 h 6.422 z m -6.329,-0.86 c 0,-0.49 0.488,-1.956 2.21,-1.956 1.606,0 2.024,1.257 2.024,1.956 z"
   id="path40" />
			</g>
			<path
   fill-rule="evenodd"
   clip-rule="evenodd"
   fill="#324f97"
   d="m 1090.873,1081.026 c -0.302,0.093 -0.744,0.163 -1.117,0.163 -1.629,0 -1.769,-1.163 -1.769,-2.164 v -5.909 h 3.071 v -1.628 h -3.071 v -3.908 l -2.094,1.303 v 2.605 h -1.978 v 1.628 h 1.978 v 7.003 c 0,1.512 0.652,2.698 3.328,2.698 0.559,0 1.117,-0.046 1.652,-0.163 z"
   id="path44" />
			<g
   id="g50">
				<rect
   x="1098.345"
   y="1071.488"
   fill-rule="evenodd"
   clip-rule="evenodd"
   fill="#324f97"
   width="2.0929999"
   height="11.074"
   id="rect46" />
				<rect
   x="1098.135"
   y="1066.51"
   fill-rule="evenodd"
   clip-rule="evenodd"
   fill="#324f97"
   width="2.5139999"
   height="2.3740001"
   id="rect48" />
			</g>
			<path
   fill-rule="evenodd"
   clip-rule="evenodd"
   fill="#324f97"
   d="m 1116.755,1080.956 c -0.605,0.187 -1.187,0.233 -1.769,0.233 -3.49,0 -4.397,-2.769 -4.397,-4.955 0,-2.047 0.884,-3.374 2.257,-3.374 1.535,0 1.699,1.397 1.699,2.233 h 2.396 c 0,-1.814 -0.814,-3.861 -3.956,-3.861 -3.304,0 -4.724,2.302 -4.724,5.396 0,2.746 1.187,6.188 5.421,6.188 1.303,0 2.258,-0.163 3.072,-0.418 v -1.442 z"
   id="path52" />
			<path
   fill-rule="evenodd"
   clip-rule="evenodd"
   fill="#324f97"
   d="m 1127.718,1071.233 c -3.094,0 -4.142,1.559 -4.142,3.327 h 2.211 c 0,-0.885 0.512,-1.699 1.768,-1.699 0.792,0 1.513,0.35 1.699,1.42 v 1.931 c -2.816,0 -6.05,0.698 -6.05,3.629 0,1.722 1.071,2.977 3.142,2.977 1.699,0 2.583,-1.023 2.862,-1.628 h 0.046 v 1.373 h 2.094 v -7.607 c 10e-4,-1.002 10e-4,-3.723 -3.63,-3.723 z m 1.536,7.001 c 0,1.303 -1.071,2.955 -2.513,2.955 -0.629,0 -1.21,-0.559 -1.21,-1.418 0,-1.42 1.651,-2.165 3.303,-2.165 h 0.419 v 0.628 z"
   id="path54" />
		</g>
		<g
   id="g78">
			<path
   fill-rule="evenodd"
   clip-rule="evenodd"
   fill="#324f97"
   d="m 830.209,1026.896 c -2.809,-1.597 -6.169,-3.415 -6.169,-6.389 0,-3.195 2.534,-4.957 6.28,-4.957 3.855,0 8.206,1.652 8.922,1.872 v -5.177 c -1.267,-0.33 -5.012,-1.101 -8.648,-1.101 -7.105,0 -12.614,3.029 -12.614,9.804 0,5.838 4.737,7.985 8.263,10.023 l 3.47,2.038 c 2.975,1.763 6.169,3.361 6.169,7.325 0,4.131 -3.635,5.619 -7.216,5.619 -4.241,0 -7.876,-1.542 -10.08,-2.809 v 5.727 c 1.157,0.386 5.123,1.487 9.639,1.487 7.822,0 13.716,-3.47 13.716,-10.795 0,-6.004 -4.296,-8.372 -7.987,-10.464 z"
   id="path58" />
			<rect
   x="852.58301"
   y="1011.75"
   fill-rule="evenodd"
   clip-rule="evenodd"
   fill="#324f97"
   width="5.5079999"
   height="38.002998"
   id="rect60" />
			<path
   fill-rule="evenodd"
   clip-rule="evenodd"
   fill="#324f97"
   d="m 894.938,1042.979 c -0.992,0.606 -4.186,2.975 -8.868,2.975 -7.877,0 -10.19,-6.995 -10.19,-16.524 0,-5.176 0.991,-13.879 8.152,-13.879 5.343,0 6.003,4.296 6.003,6.608 h 6.39 c 0,-6.499 -4.462,-11.014 -12.228,-11.014 -11.072,0 -14.376,9.088 -14.376,19.167 0,14.871 6.775,20.047 15.147,20.047 4.461,0 8.374,-1.542 9.97,-2.259 z"
   id="path62" />
			<path
   fill-rule="evenodd"
   clip-rule="evenodd"
   fill="#324f97"
   d="m 931.454,1011.75 h -5.508 v 25.721 c 0,2.81 0,8.483 -7.491,8.483 -7.271,0 -7.271,-5.673 -7.271,-8.483 v -25.721 h -5.507 v 26.768 c 0,8.151 5.453,11.842 12.833,11.842 7.437,0 12.944,-3.69 12.944,-11.842 z"
   id="path64" />
			<polygon
   fill-rule="evenodd"
   clip-rule="evenodd"
   fill="#324f97"
   points="964.67,1011.75 940.214,1011.75 940.214,1016.156 949.688,1016.156 949.688,1049.753 955.196,1049.753 955.196,1016.156 964.67,1016.156 "
   id="polygon66" />
			<rect
   x="995.07898"
   y="1011.75"
   fill-rule="evenodd"
   clip-rule="evenodd"
   fill="#324f97"
   width="5.5079999"
   height="38.002998"
   id="rect68" />
			<path
   fill-rule="evenodd"
   clip-rule="evenodd"
   fill="#324f97"
   d="m 1040.133,1027.833 h -13.605 v 4.406 h 8.097 v 12.227 c -0.386,0.55 -3.084,1.487 -6.445,1.487 -8.758,0 -9.804,-9.143 -9.804,-16.358 0,-6.884 1.653,-14.045 8.813,-14.045 4.792,0 6.611,3.14 6.611,6.389 h 6.113 c 0,-7.325 -5.783,-10.794 -12.669,-10.794 -10.796,0 -14.926,7.986 -14.926,18.451 0,14.705 6.224,20.764 16.029,20.764 6.279,0 10.63,-2.698 11.787,-3.58 v -18.947 z"
   id="path70" />
			<polygon
   fill-rule="evenodd"
   clip-rule="evenodd"
   fill="#324f97"
   points="1073.128,1049.753 1079.628,1049.753 1079.628,1011.75 1074.671,1011.75 1074.671,1041.492 1074.561,1041.492 1059.579,1011.75 1052.692,1011.75 1052.692,1049.753 1057.65,1049.753 1057.65,1019.296 1057.76,1019.296 "
   id="polygon72" />
			<rect
   x="1093.2419"
   y="1011.75"
   fill-rule="evenodd"
   clip-rule="evenodd"
   fill="#324f97"
   width="5.5079999"
   height="38.002998"
   id="rect74" />
			<path
   fill-rule="evenodd"
   clip-rule="evenodd"
   fill="#324f97"
   d="m 1122.375,1026.896 c -2.808,-1.597 -6.168,-3.415 -6.168,-6.389 0,-3.195 2.534,-4.957 6.28,-4.957 3.855,0 8.206,1.652 8.922,1.872 v -5.177 c -1.267,-0.33 -5.012,-1.101 -8.647,-1.101 -7.105,0 -12.614,3.029 -12.614,9.804 0,5.838 4.738,7.985 8.262,10.023 l 3.471,2.038 c 2.974,1.763 6.169,3.361 6.169,7.325 0,4.131 -3.636,5.619 -7.216,5.619 -4.241,0 -7.877,-1.542 -10.081,-2.809 v 5.727 c 1.158,0.386 5.123,1.487 9.639,1.487 7.822,0 13.716,-3.47 13.716,-10.795 0,-6.004 -4.296,-8.372 -7.987,-10.464 z"
   id="path76" />
		</g>
	</g>
	<g
   id="g106">
		<path
   fill-rule="evenodd"
   clip-rule="evenodd"
   fill="#ffe616"
   d="m 692.321,1087.464 c 25.727,-0.718 42.939,-9.171 59.233,-29.093 16.709,-20.43 21.444,-39.64 16.429,-65.65 -1.563,3.9 -2.581,6.057 -4.598,9.741 -11.358,20.743 -23.687,21.614 -45.352,40.254 -17.19,14.789 -18.378,26.005 -25.712,44.748 z"
   id="path82" />
		<linearGradient
   id="SVGID_1_"
   gradientUnits="userSpaceOnUse"
   x1="701.41937"
   y1="1093.2397"
   x2="767.27148"
   y2="1027.3877">
			<stop
   offset="0"
   style="stop-color:#004289"
   id="stop84" />
			<stop
   offset="1"
   style="stop-color:#57BEC4"
   id="stop86" />
		</linearGradient>
		<path
   fill-rule="evenodd"
   clip-rule="evenodd"
   fill="url(#SVGID_1_)"
   d="m 698.473,1080.042 c -1.036,2.541 -2.206,5.717 -2.843,7.408 23.871,-1.705 40.308,-9.876 55.887,-28.926 8.292,-10.138 13.663,-20.012 16.347,-30.544 -1.885,0.122 -7.471,1.32 -10.245,1.983 -4.948,10.196 -8.07,17.074 -19.672,29.732 -15.268,15.366 -30.514,18.709 -39.474,20.347 z"
   id="path89"
   style="fill:url(#SVGID_1_)" />
		<path
   fill-rule="evenodd"
   clip-rule="evenodd"
   fill="#afcb26"
   d="m 757.551,1029.963 c 3.912,-0.97 6.49,-1.62 10.317,-1.977 2.711,-10.72 2.718,-22.282 0.108,-35.347 -1.541,3.978 -3.906,8.673 -3.906,8.673 -0.233,7.155 -1.203,16.95 -6.519,28.651 z"
   id="path91" />
		<linearGradient
   id="SVGID_2_"
   gradientUnits="userSpaceOnUse"
   x1="728.01172"
   y1="1080.0088"
   x2="728.01172"
   y2="1030.0293">
			<stop
   offset="0"
   style="stop-color:#DD052B"
   id="stop93" />
			<stop
   offset="0.9946"
   style="stop-color:#F28C00"
   id="stop95" />
		</linearGradient>
		<path
   fill-rule="evenodd"
   clip-rule="evenodd"
   fill="url(#SVGID_2_)"
   d="m 757.551,1030.029 c -1.365,3.178 -2.578,5.838 -4.556,9.367 -12.876,22.969 -29.781,36.166 -54.522,40.612 7.536,-17.768 18.855,-29.799 37.34,-40.42 7.902,-4.541 14.665,-7.623 21.738,-9.559 z"
   id="path98"
   style="fill:url(#SVGID_2_)" />
		<path
   fill-rule="evenodd"
   clip-rule="evenodd"
   fill="#afcb26"
   d="m 692.288,1087.493 c 1.575,-0.056 2.109,0 3.233,-0.084 0.31,-0.984 2.951,-7.301 2.951,-7.301 l -3.61,0.435 c 0,0 -0.69,2.256 -2.574,6.95 z"
   id="path100" />
		
			<path
   fill-rule="evenodd"
   clip-rule="evenodd"
   fill="none"
   stroke="#00928c"
   stroke-width="0.3338"
   stroke-miterlimit="3.8637"
   d="m 790.909,1027.514 -9.948,-0.444 c -21.396,0.25 -32.886,5.39 -44.977,12.338 -21.13,12.141 -34.354,27.365 -41.746,52.508"
   id="path102" />
		
			<path
   fill-rule="evenodd"
   clip-rule="evenodd"
   fill="none"
   stroke="#00928c"
   stroke-width="0.3338"
   stroke-miterlimit="3.8637"
   d="m 763.926,995.965 c 1.048,14.331 -2.619,28.16 -10.809,43.052 -15.434,28.063 -39.338,42.7 -70.591,42.197"
   id="path104" />
	</g>
</g>
</svg>
